<?xml version="1.0" encoding="UTF-8"?>
<svg id="Layer_2" data-name="Layer 2" xmlns="http://www.w3.org/2000/svg" viewBox="0 0 1010.23 362.08">
  <defs>
    <style>
      .cls-1 {
        fill: #b1b2af;
      }

      .cls-2 {
        fill: #02b2bf;
      }

      .cls-3 {
        fill: #0199ae;
      }

      .cls-4 {
        fill: #05c7cc;
      }

      .cls-5 {
        fill: #8c8c8c;
      }

      .cls-6 {
        fill: #4c4c4c;
      }
    </style>
  </defs>
  <g id="Layer_1-2" data-name="Layer 1">
    <g>
      <path class="cls-6" d="M545.91,148.51h-89.38v25.47h79.16v16.47h-79.16v26.85h91.37v17.85h-110.43v-102.96h108.45v16.32Z"/>
      <path class="cls-6" d="M677.24,167.88c-4.73-12.66-19.83-22.12-38.9-22.12-25.47,0-43.32,14.34-43.32,37.83s16.63,37.98,43.17,37.98c20.74,0,32.95-8.54,38.59-20.9l16.47,7.47c-8.24,19.37-26.85,30.35-56.44,30.35-34.47,0-61.62-19.98-61.62-54.91s28.98-54.76,63.15-54.76c26.69,0,47.74,13.58,55.52,30.51l-16.63,8.54Z"/>
      <path class="cls-6" d="M846.25,235.15h-18.91v-45.76h-78.25v45.76h-19.07v-102.96h19.07v39.96h78.25v-39.96h18.91v102.96Z"/>
      <path class="cls-6" d="M944.03,238.51c-36.15,0-66.2-19.98-66.2-54.91s30.05-54.76,66.2-54.76,66.2,20.13,66.2,54.76-30.05,54.91-66.2,54.91ZM944.03,145.77c-28.07,0-46.22,14.34-46.22,37.83s18.15,37.98,46.22,37.98,46.22-14.34,46.22-37.98-18.15-37.83-46.22-37.83Z"/>
    </g>
    <path class="cls-5" d="M156.78,329.09L29.6,255.66l-1.03-.34v-1.26s0-147.05,0-147.05L156.78,32.98l128.22,74.03v148.06l-128.22,74.03ZM32.06,253.05l124.73,72.01,124.72-72.01V109.03l-124.72-72.01L32.06,109.03v144.02Z"/>
    <path class="cls-6" d="M156.78,362.08l-.44-.25L0,271.56v-.51s0-180.53,0-180.53l.44-.25L156.78,0l.44.25,156.35,90.27v181.04s-.44.25-.44.25l-156.35,90.27ZM1.75,270.55l155.04,89.51,155.04-89.51V91.53L156.78,2.02,1.75,91.53v179.02Z"/>
    <polygon class="cls-4" points="97.57 144.94 97.57 216.49 159.54 252.26 159.54 180.71 97.57 144.94"/>
    <polygon class="cls-2" points="159.54 109.16 159.54 109.16 97.57 144.94 159.54 180.71 221.5 144.94 159.54 109.16"/>
    <polygon class="cls-3" points="221.58 144.94 159.61 180.71 159.61 252.26 159.62 252.26 221.58 216.49 221.58 144.94"/>
    <path class="cls-1" d="M158.48,291.52l-94.48-54.55-1.81-.9v-2.12s0-109.2,0-109.2l96.29-55.59,96.29,55.59v111.18l-96.29,55.59ZM69.06,231.97l89.42,51.63,89.42-51.63v-103.25l-89.42-51.63-89.42,51.63v103.25Z"/>
  </g>
</svg>