<?xml version="1.0" encoding="UTF-8"?>
<svg id="Layer_2" data-name="Layer 2" xmlns="http://www.w3.org/2000/svg" viewBox="0 0 1010.98 363.81">
  <defs>
    <style>
      .cls-1 {
        fill: #b1b2af;
      }

      .cls-2 {
        fill: #02b2bf;
      }

      .cls-3 {
        fill: #0199ae;
      }

      .cls-4 {
        fill: #05c7cc;
      }

      .cls-5 {
        fill: #dfe2d9;
      }

      .cls-6 {
        fill: #8c8c8c;
      }
    </style>
  </defs>
  <g id="Layer_1-2" data-name="Layer 1">
    <g>
      <path class="cls-5" d="M546.66,149.38h-89.38v25.47h79.16v16.47h-79.16v26.85h91.37v17.85h-110.43v-102.96h108.45v16.32Z"/>
      <path class="cls-5" d="M677.99,168.75c-4.73-12.66-19.83-22.12-38.9-22.12-25.47,0-43.32,14.34-43.32,37.83s16.63,37.98,43.17,37.98c20.74,0,32.95-8.54,38.59-20.9l16.47,7.47c-8.24,19.37-26.85,30.35-56.44,30.35-34.47,0-61.62-19.98-61.62-54.91s28.98-54.76,63.15-54.76c26.69,0,47.74,13.58,55.52,30.51l-16.63,8.54Z"/>
      <path class="cls-5" d="M847,236.02h-18.91v-45.76h-78.25v45.76h-19.07v-102.96h19.07v39.96h78.25v-39.96h18.91v102.96Z"/>
      <path class="cls-5" d="M944.78,239.37c-36.15,0-66.2-19.98-66.2-54.91s30.05-54.76,66.2-54.76,66.2,20.13,66.2,54.76-30.05,54.91-66.2,54.91ZM944.78,146.63c-28.07,0-46.22,14.34-46.22,37.83s18.15,37.98,46.22,37.98,46.22-14.34,46.22-37.98-18.15-37.83-46.22-37.83Z"/>
    </g>
    <g>
      <path class="cls-1" d="M157.53,329.96l-127.19-73.43-1.03-.34v-1.26s0-147.05,0-147.05L157.53,33.85l128.22,74.03v148.06l-128.22,74.03ZM32.81,253.91l124.73,72.01,124.72-72.01V109.9l-124.72-72.01L32.81,109.9v144.02Z"/>
      <path class="cls-1" d="M157.53,331.11l-127.6-73.67-1.61-.54v-1.98s0-147.63,0-147.63l.5-.29L157.53,32.7l129.22,74.6v149.21l-.5.29-128.72,74.32ZM30.32,255.46l.53.2,126.69,73.14,127.22-73.45V108.45l-127.22-73.45L30.31,108.45v147.01ZM157.53,327.08L31.81,254.49V109.32l.5-.29,125.23-72.3,125.72,72.59v145.17l-.5.29-125.22,72.3ZM33.81,253.34l123.73,71.43,123.72-71.43V110.47l-123.72-71.43L33.81,110.47v142.86Z"/>
    </g>
    <g>
      <path class="cls-6" d="M157.53,362.94l-.44-.25L.75,272.43v-.51s0-180.53,0-180.53l.44-.25L157.53.87l.44.25,156.35,90.27v181.04s-.44.25-.44.25l-156.35,90.27ZM2.5,271.42l155.04,89.51,155.04-89.51V92.39L157.53,2.88,2.5,92.39v179.02Z"/>
      <path class="cls-6" d="M157.53,363.81L0,272.86v-.94s0-180.97,0-180.97l.81-.47L157.53,0l.81.47,156.72,90.48v181.9s-.81.47-.81.47l-156.72,90.48ZM1.5,271.99l156.03,90.09,156.03-90.09V91.82S157.53,1.73,157.53,1.73L1.5,91.82v180.17ZM157.53,361.79l-.38-.22L1.75,271.85V91.96l.38-.22L157.53,2.02l.38.22,155.41,89.73v179.89l-.38.22-155.41,89.73ZM3.25,270.98l154.29,89.08,154.29-89.08V92.83L157.53,3.75,3.25,92.83v178.16Z"/>
    </g>
    <polygon class="cls-4" points="98.32 145.8 98.32 217.35 160.29 253.13 160.29 181.58 98.32 145.8"/>
    <polygon class="cls-2" points="160.29 110.03 160.29 110.03 98.32 145.8 160.29 181.58 222.25 145.8 160.29 110.03"/>
    <polygon class="cls-3" points="222.33 145.8 160.36 181.58 160.36 253.13 160.37 253.13 222.33 217.35 222.33 145.8"/>
    <g>
      <path class="cls-5" d="M159.23,292.39l-94.48-54.55-1.81-.9v-2.12s0-109.2,0-109.2l96.29-55.59,96.29,55.59v111.18l-96.29,55.59ZM69.81,232.83l89.42,51.63,89.42-51.63v-103.25l-89.42-51.63-89.42,51.63v103.25Z"/>
      <path class="cls-5" d="M159.23,293.54l-94.98-54.83-2.3-1.15v-2.74s0-109.78,0-109.78l.5-.29,96.79-55.88,97.29,56.17v112.34l-.5.29-96.79,55.88ZM63.94,236.32l1.25.63,94.03,54.29,95.29-55.01v-110.03l-95.29-55.01-95.29,55.01v110.13ZM159.23,285.61l-90.42-52.2v-104.41l.5-.29,89.92-51.91,90.42,52.2v104.41l-.5.29-89.92,51.91ZM70.81,232.26l88.42,51.05,88.42-51.05v-102.1l-88.42-51.05-88.42,51.05v102.1Z"/>
    </g>
  </g>
</svg>